<svg width="512.016" height="512" xmlns="http://www.w3.org/2000/svg">

 <g>
  <title>background</title>
  <rect fill="none" id="canvas_background" height="402" width="582" y="-1" x="-1"/>
 </g>
 <g>
  <title>Layer 1</title>
  <path id="svg_1" d="m389.332031,480l-330.664062,0c-32.363281,0 -58.667969,-26.304687 -58.667969,-58.667968l0,-330.664063c0,-32.363281 26.304688,-58.667969 58.667969,-58.667969l266.664062,0c8.832031,0 16,7.167969 16,16c0,8.832032 -7.167969,16 -16,16l-266.664062,0c-14.699219,0 -26.667969,11.96875 -26.667969,26.667969l0,330.664063c0,14.699218 11.96875,26.667968 26.667969,26.667968l330.664062,0c14.699219,0 26.667969,-11.96875 26.667969,-26.667968l0,-181.332032c0,-8.832031 7.167969,-16 16,-16s16,7.167969 16,16l0,181.332032c0,32.363281 -26.304688,58.667968 -58.667969,58.667968zm0,0"/>
 </g>
</svg>